<svg xmlns="http://www.w3.org/2000/svg" xml:space="preserve" width="500" height="350" viewBox="0 0 500 350"><defs><clipPath id="a" clipPathUnits="userSpaceOnUse"><path d="M0 630h900V0H0Z"/></clipPath></defs><path d="M0 367.5h375V630H0Z" style="fill:#fff;fill-opacity:1;fill-rule:nonzero;stroke:none;stroke-width:.416667" transform="matrix(1.33333 0 0 -1.33333 0 840)"/><g clip-path="url(#a)" transform="matrix(.55556 0 0 -.55556 0 350)"><path d="m0 0 43.34-55.47-115.27 35.54-115.27-35.54L-143.86 0a140.972 140.972 0 0 0-47.49 47.08l30.32 17.51a105.602 105.602 0 0 1 38.93-36.74l50.17 64.22 50.17-64.22c15.92 8.7 29.36 21.39 38.93 36.74l30.32-17.51A140.972 140.972 0 0 0 0 0" style="fill:#ef0008;fill-opacity:1;fill-rule:nonzero;stroke:none" transform="translate(521.93 194.93)"/><path d="M0 0c-18.74-.61-36.25-6.16-51.27-15.4l30.52-75.54-80.72-11.35c-.02-.88-.03-1.77-.03-2.65 0-17.86 4.48-34.69 12.39-49.43l-30.33-17.51c-10.53 19.27-16.67 41.29-17.04 64.67l-69.67-9.79 88.41 82.06 26.85 117.59 26.37-65.25C-45.33 28.11-23.36 34.44 0 35.01Z" style="fill:#ef0008;fill-opacity:1;fill-rule:nonzero;stroke:none" transform="translate(446.5 419.94)"/><path d="m0 0-69.67 9.79c-.37-23.38-6.51-45.4-17.04-64.67l-30.33 17.51c7.91 14.74 12.39 31.57 12.39 49.43 0 .88-.01 1.77-.03 2.65l-80.72 11.35 30.52 75.54a104.055 104.055 0 0 1-51.27 15.4v35.01c23.36-.57 45.33-6.9 64.52-17.61l26.37 65.25 26.85-117.59z" style="fill:#ef0008;fill-opacity:1;fill-rule:nonzero;stroke:none" transform="translate(659.65 302.94)"/></g></svg>